<svg width="28" height="21" viewBox="0 0 28 21" fill="none" xmlns="http://www.w3.org/2000/svg">
<path d="M13.98 2.1665L11.48 5.49984V17.1665C11.48 17.6085 11.6556 18.0325 11.9681 18.345C12.2807 18.6576 12.7046 18.8332 13.1466 18.8332H24.8133C25.2553 18.8332 25.6793 18.6576 25.9918 18.345C26.3044 18.0325 26.48 17.6085 26.48 17.1665V5.49984L23.98 2.1665H13.98Z" stroke="#111827" stroke-width="1.66667" stroke-linecap="round" stroke-linejoin="round"/>
<path d="M11.48 5.5H26.48" stroke="#111827" stroke-width="1.66667" stroke-linecap="round" stroke-linejoin="round"/>
<path d="M22.3134 8.8335C22.3134 9.71755 21.9622 10.5654 21.3371 11.1905C20.712 11.8156 19.8641 12.1668 18.9801 12.1668C18.096 12.1668 17.2482 11.8156 16.623 11.1905C15.9979 10.5654 15.6467 9.71755 15.6467 8.8335" stroke="#111827" stroke-width="1.66667" stroke-linecap="round" stroke-linejoin="round"/>
</svg>
