<svg width="17" height="16" viewBox="0 0 17 16" fill="none" xmlns="http://www.w3.org/2000/svg">
<path d="M8.97966 5.33398C8.64527 5.69145 8.4629 6.16488 8.47106 6.6543C8.47922 7.14371 8.67727 7.6108 9.02339 7.95692C9.36951 8.30304 9.83659 8.50109 10.326 8.50925C10.8154 8.51741 11.2889 8.33504 11.6463 8.00065C11.6463 8.52807 11.4899 9.04364 11.1969 9.48217C10.9039 9.9207 10.4874 10.2625 10.0001 10.4643C9.51288 10.6662 8.9767 10.719 8.45942 10.6161C7.94213 10.5132 7.46698 10.2592 7.09404 9.88627C6.7211 9.51333 6.46712 9.03817 6.36423 8.52089C6.26133 8.00361 6.31414 7.46743 6.51598 6.98016C6.71781 6.49289 7.0596 6.07642 7.49814 5.7834C7.93667 5.49038 8.45224 5.33398 8.97966 5.33398Z" stroke="#EAB308" stroke-width="1.33333" stroke-linecap="round" stroke-linejoin="round"/>
<path d="M8.97998 1.33398V2.66732" stroke="#EAB308" stroke-width="1.33333" stroke-linecap="round" stroke-linejoin="round"/>
<path d="M8.97998 13.334V14.6673" stroke="#EAB308" stroke-width="1.33333" stroke-linecap="round" stroke-linejoin="round"/>
<path d="M4.24658 3.26758L5.17992 4.20091" stroke="#EAB308" stroke-width="1.33333" stroke-linecap="round" stroke-linejoin="round"/>
<path d="M12.7798 11.8008L13.7131 12.7341" stroke="#EAB308" stroke-width="1.33333" stroke-linecap="round" stroke-linejoin="round"/>
<path d="M2.31299 8H3.64632" stroke="#EAB308" stroke-width="1.33333" stroke-linecap="round" stroke-linejoin="round"/>
<path d="M14.313 8H15.6463" stroke="#EAB308" stroke-width="1.33333" stroke-linecap="round" stroke-linejoin="round"/>
<path d="M5.17992 11.8008L4.24658 12.7341" stroke="#EAB308" stroke-width="1.33333" stroke-linecap="round" stroke-linejoin="round"/>
<path d="M13.7131 3.26758L12.7798 4.20091" stroke="#EAB308" stroke-width="1.33333" stroke-linecap="round" stroke-linejoin="round"/>
</svg>
