<svg width="14" height="15" viewBox="0 0 14 15" fill="none" xmlns="http://www.w3.org/2000/svg">
<path d="M6.97998 1.5C6.18433 2.29565 5.73734 3.37478 5.73734 4.5C5.73734 5.62522 6.18433 6.70435 6.97998 7.5C7.77563 8.29565 8.85477 8.74264 9.97998 8.74264C11.1052 8.74264 12.1843 8.29565 12.98 7.5C12.98 8.68669 12.6281 9.84673 11.9688 10.8334C11.3095 11.8201 10.3724 12.5892 9.27608 13.0433C8.17973 13.4974 6.97333 13.6162 5.80944 13.3847C4.64556 13.1532 3.57646 12.5818 2.73734 11.7426C1.89823 10.9035 1.32678 9.83443 1.09527 8.67054C0.86376 7.50666 0.98258 6.30026 1.43671 5.2039C1.89083 4.10754 2.65987 3.17047 3.64656 2.51118C4.63326 1.85189 5.7933 1.5 6.97998 1.5Z" stroke="#818CF8" stroke-width="1.33333" stroke-linecap="round" stroke-linejoin="round"/>
</svg>
