<svg width="33" height="32" viewBox="0 0 33 32" fill="none" xmlns="http://www.w3.org/2000/svg">
<path d="M8.12572 4.11556C10.2627 1.6683 13.374 0.0487471 16.6227 0.00222499C20.7816 -0.0840348 25.017 2.34384 26.7583 6.24007C25.4141 5.66678 23.9482 5.41285 22.4938 5.42012C20.722 5.39879 18.9807 5.93864 17.4227 6.76926C16.0193 7.57419 14.7391 8.62045 13.7176 9.89012C12.6403 11.2015 11.752 12.7062 11.2947 14.3582C10.8928 15.8028 10.8322 17.3395 11.1315 18.8103C9.92907 18.2903 8.79827 17.5765 7.87225 16.6349C6.53621 15.3061 5.63215 13.5087 5.4794 11.6056C5.21401 8.86712 6.31425 6.11504 8.12572 4.11556Z" fill="url(#paint0_linear_117_133)"/>
<path d="M22.2265 6.99751C25.0623 6.79446 27.8886 8.02342 29.9053 10.0151C30.9373 11.0551 31.7707 12.302 32.3192 13.6705C33.0753 15.4907 33.2213 17.5803 32.6581 19.4776C32.0433 21.6622 30.5487 23.5003 28.7674 24.8305C28.0757 25.3602 27.3058 25.7629 26.5397 26.1656C27.4676 23.5327 27.3277 20.5665 26.3048 17.9835C25.6561 16.3417 24.6217 14.8694 23.3487 13.6671C22.1936 12.5588 20.8418 11.6425 19.3415 11.0934C18.0375 10.5778 16.6012 10.397 15.2145 10.5991C17.0055 8.58556 19.5535 7.23109 22.2265 6.99751Z" fill="url(#paint1_linear_117_133)"/>
<path d="M2.58297 9.5853C3.07652 9.04593 3.59968 8.52353 4.21448 8.12615C3.84073 9.81307 3.79634 11.5891 4.21305 13.2722C4.83978 15.9196 6.60494 18.2404 8.9324 19.5822C11.2938 20.9503 14.1358 21.6665 16.827 21.0239C15.1649 23.2051 12.6575 24.8131 9.91331 25.0258C7.12714 25.2289 4.30135 24.06 2.37819 22.0179C1.21064 20.8093 0.393456 19.2435 0.129016 17.5672C-0.0447322 16.4212 -0.0638259 15.2348 0.201569 14.1013C0.557657 12.4062 1.44644 10.8637 2.58297 9.5853Z" fill="url(#paint2_linear_117_133)"/>
<path d="M18.2389 12.206C19.7859 12.7139 21.1444 13.6885 22.332 14.7972C24.0738 16.4653 25.3191 18.7342 25.542 21.1771C25.7406 22.9657 25.3826 24.8126 24.5282 26.39C23.1769 28.8043 20.8814 30.6317 18.2909 31.4929C15.1692 32.496 11.6112 31.994 8.89231 30.1374C8.1534 29.6819 7.51855 29.0824 6.91521 28.4602C6.09277 27.6228 5.44265 26.6231 4.91711 25.5715C5.55291 25.7886 6.16246 26.0856 6.8207 26.233C8.09564 26.5232 9.43026 26.6706 10.7257 26.4336C13.668 25.9378 16.3301 24.1763 18.1339 21.7886C19.0737 20.5703 19.8585 19.1994 20.2699 17.702C20.4962 16.8083 20.5969 15.8382 20.2704 14.9557C19.9434 13.8251 19.1272 12.9262 18.2389 12.206Z" fill="url(#paint3_linear_117_133)"/>
<defs>
<linearGradient id="paint0_linear_117_133" x1="31.8942" y1="6.68274" x2="-1.58009" y2="15.7995" gradientUnits="userSpaceOnUse">
<stop stop-color="#D250F3"/>
<stop offset="1" stop-color="#FE79B1"/>
</linearGradient>
<linearGradient id="paint1_linear_117_133" x1="29.1936" y1="24.6463" x2="11.1502" y2="-1.6053" gradientUnits="userSpaceOnUse">
<stop stop-color="#3CADFE"/>
<stop offset="1" stop-color="#905DF3"/>
</linearGradient>
<linearGradient id="paint2_linear_117_133" x1="32.9972" y1="27.9726" x2="5.27285" y2="-2.61614" gradientUnits="userSpaceOnUse">
<stop stop-color="#D250F3"/>
<stop offset="1" stop-color="#FC9E6C"/>
</linearGradient>
<linearGradient id="paint3_linear_117_133" x1="26.2409" y1="20.1383" x2="4.03922" y2="24.4061" gradientUnits="userSpaceOnUse">
<stop stop-color="#3CADFE"/>
<stop offset="1" stop-color="#905DF3"/>
</linearGradient>
</defs>
</svg>
